<svg width="523" height="238" viewBox="0 0 523 238" fill="none" xmlns="http://www.w3.org/2000/svg">
<path d="M5.15625 93V24.25H20.9375C23.6719 24.25 25.9375 24.6667 27.7344 25.5C29.5573 26.3333 30.9896 27.5703 32.0312 29.2109C33.0729 30.8516 33.8151 32.8828 34.2578 35.3047C34.7005 37.7005 34.9219 40.474 34.9219 43.625V45.0703C34.9219 49.4974 34.5312 53.2734 33.75 56.3984C32.9948 59.4974 31.6276 61.8542 29.6484 63.4688C27.6693 65.0833 24.8828 65.8906 21.2891 65.8906H15.625V93H5.15625ZM15.625 57.2578H19.2188C20.7552 57.2578 21.901 56.8672 22.6562 56.0859C23.4115 55.3047 23.9062 54.0156 24.1406 52.2188C24.401 50.3958 24.5312 47.974 24.5312 44.9531V43.625C24.5052 39.901 24.1797 37.0885 23.5547 35.1875C22.9297 33.2604 21.5104 32.2969 19.2969 32.2969H15.625V57.2578ZM42.0312 93V24.25H59.3359C62.9297 24.25 65.612 24.9531 67.3828 26.3594C69.1536 27.7656 70.3125 29.8229 70.8594 32.5312C71.4323 35.2396 71.7188 38.5469 71.7188 42.4531C71.7188 46.4896 71.3021 49.6667 70.4688 51.9844C69.6615 54.276 67.9948 55.8125 65.4688 56.5938C66.6667 56.8021 67.6693 57.2969 68.4766 58.0781C69.2839 58.8333 69.9349 59.9531 70.4297 61.4375C70.9245 62.8958 71.276 64.7839 71.4844 67.1016C71.7188 69.3932 71.8359 72.2057 71.8359 75.5391C71.8359 75.7995 71.8359 76.5286 71.8359 77.7266C71.8359 78.9245 71.8359 80.3438 71.8359 81.9844C71.862 83.599 71.888 85.2135 71.9141 86.8281C71.9401 88.4427 71.9792 89.8229 72.0312 90.9688C72.0833 92.1146 72.1484 92.7917 72.2266 93H61.7578C61.6797 92.8698 61.6146 92.2057 61.5625 91.0078C61.5365 89.7839 61.4974 88.2344 61.4453 86.3594C61.4193 84.4844 61.3932 82.4661 61.3672 80.3047C61.3672 78.1432 61.3672 76.0208 61.3672 73.9375C61.3672 71.8281 61.3672 69.9661 61.3672 68.3516C61.3672 66.2943 61.2109 64.7448 60.8984 63.7031C60.612 62.6354 60.0651 61.8932 59.2578 61.4766C58.4766 61.0599 57.3438 60.8125 55.8594 60.7344L52.5 60.5391V93H42.0312ZM52.5391 52.4141H56.7188C57.9948 52.4141 58.9583 52.1276 59.6094 51.5547C60.2865 50.9818 60.7422 49.9271 60.9766 48.3906C61.237 46.8542 61.3672 44.6406 61.3672 41.75V41.3203C61.3672 38.8984 61.25 37.0365 61.0156 35.7344C60.7812 34.4323 60.2865 33.5339 59.5312 33.0391C58.8021 32.5443 57.6562 32.2969 56.0938 32.2969H52.5391V52.4141ZM95.2344 93.7812C91.6667 93.7812 88.75 93.026 86.4844 91.5156C84.2448 90.0052 82.5911 87.7656 81.5234 84.7969C80.4557 81.8281 79.9219 78.1562 79.9219 73.7812V42.3359C79.9219 38.3776 80.4427 34.9922 81.4844 32.1797C82.526 29.3672 84.1797 27.2057 86.4453 25.6953C88.7109 24.1849 91.6797 23.4297 95.3516 23.4297C98.112 23.4297 100.443 23.8594 102.344 24.7188C104.245 25.5781 105.781 26.8281 106.953 28.4688C108.125 30.0833 108.971 32.0625 109.492 34.4062C110.039 36.724 110.312 39.3672 110.312 42.3359V73.7812C110.312 78.1562 109.792 81.8281 108.75 84.7969C107.734 87.7656 106.12 90.0052 103.906 91.5156C101.693 93.026 98.8021 93.7812 95.2344 93.7812ZM95.2344 84.7188C96.5365 84.7188 97.513 84.3281 98.1641 83.5469C98.8151 82.7656 99.2448 81.5807 99.4531 79.9922C99.6875 78.3776 99.8047 76.3464 99.8047 73.8984V41.8672C99.8047 38.8724 99.5182 36.5677 98.9453 34.9531C98.3984 33.3125 97.2005 32.4922 95.3516 32.4922C93.4505 32.4922 92.1615 33.2865 91.4844 34.875C90.8073 36.4375 90.4688 38.7552 90.4688 41.8281V73.8984C90.4688 76.3984 90.5729 78.4557 90.7812 80.0703C91.0156 81.6589 91.4714 82.8307 92.1484 83.5859C92.8516 84.3411 93.8802 84.7188 95.2344 84.7188ZM119.844 93V24.25H132.852L142.617 74.4844L151.797 24.25H164.883V93H155.547V67.375L155.938 43.8594L146.68 92.6875H138.359L128.711 43.8594L129.102 67.375V93H119.844ZM189.688 93.7812C186.12 93.7812 183.203 93.026 180.938 91.5156C178.698 90.0052 177.044 87.7656 175.977 84.7969C174.909 81.8281 174.375 78.1562 174.375 73.7812V42.3359C174.375 38.3776 174.896 34.9922 175.938 32.1797C176.979 29.3672 178.633 27.2057 180.898 25.6953C183.164 24.1849 186.133 23.4297 189.805 23.4297C192.565 23.4297 194.896 23.8594 196.797 24.7188C198.698 25.5781 200.234 26.8281 201.406 28.4688C202.578 30.0833 203.424 32.0625 203.945 34.4062C204.492 36.724 204.766 39.3672 204.766 42.3359V73.7812C204.766 78.1562 204.245 81.8281 203.203 84.7969C202.188 87.7656 200.573 90.0052 198.359 91.5156C196.146 93.026 193.255 93.7812 189.688 93.7812ZM189.688 84.7188C190.99 84.7188 191.966 84.3281 192.617 83.5469C193.268 82.7656 193.698 81.5807 193.906 79.9922C194.141 78.3776 194.258 76.3464 194.258 73.8984V41.8672C194.258 38.8724 193.971 36.5677 193.398 34.9531C192.852 33.3125 191.654 32.4922 189.805 32.4922C187.904 32.4922 186.615 33.2865 185.938 34.875C185.26 36.4375 184.922 38.7552 184.922 41.8281V73.8984C184.922 76.3984 185.026 78.4557 185.234 80.0703C185.469 81.6589 185.924 82.8307 186.602 83.5859C187.305 84.3411 188.333 84.7188 189.688 84.7188ZM228.672 93V24.25H244.102C247.591 24.25 250.391 24.9531 252.5 26.3594C254.609 27.7396 256.133 29.7448 257.07 32.375C258.034 35.0052 258.516 38.1823 258.516 41.9062L258.555 72.9219C258.555 77.4271 258.06 81.1771 257.07 84.1719C256.107 87.1406 254.544 89.3542 252.383 90.8125C250.221 92.2708 247.344 93 243.75 93H228.672ZM239.141 84.875H242.578C243.802 84.875 244.818 84.6276 245.625 84.1328C246.458 83.638 247.07 82.7656 247.461 81.5156C247.878 80.2396 248.086 78.4427 248.086 76.125L248.047 42.1797C248.047 38.6641 247.617 36.138 246.758 34.6016C245.898 33.0651 244.388 32.2969 242.227 32.2969H239.141V84.875ZM268.047 93V24.25H291.094V33.2734H278.516V53.2734H290.469V62.1016H278.516V83.9766H291.562V93H268.047ZM299.297 93V24.25H309.766V84.0938H323.008V93H299.297Z" fill="#141414"/>
<path d="M139.952 101.24L139.782 101.07C138.648 100.163 136.892 99.4833 134.512 99.03C132.132 98.4633 129.582 98.0667 126.862 97.84C124.142 97.6133 121.478 97.5 118.872 97.5C116.378 97.3867 114.452 97.33 113.092 97.33C111.958 97.33 110.032 97.3867 107.312 97.5C104.705 97.6133 101.758 97.84 98.4716 98.18C95.1849 98.4067 91.7849 98.8033 88.2716 99.37C84.7583 99.8233 81.5283 100.447 78.5816 101.24C75.6349 102.033 73.1983 102.997 71.2716 104.13C69.4583 105.15 68.5516 106.34 68.5516 107.7C68.5516 107.927 68.6083 108.04 68.7216 108.04C68.7216 108.153 68.7216 108.21 68.7216 108.21C68.7216 108.437 68.7783 108.607 68.8916 108.72C68.8916 109.627 68.7216 110.477 68.3816 111.27C68.1549 112.063 67.4183 112.46 66.1716 112.46C65.1516 112.46 64.1883 112.007 63.2816 111.1C62.3749 110.08 61.6383 108.947 61.0716 107.7C60.5049 106.34 60.0516 104.98 59.7116 103.62C59.3716 102.147 59.2016 101.013 59.2016 100.22C59.2016 97.6133 60.0516 95.4033 61.7516 93.59C63.5649 91.7767 65.8316 90.2467 68.5516 89C71.2716 87.7533 74.3316 86.7333 77.7316 85.94C81.2449 85.1467 84.6449 84.58 87.9316 84.24C91.3316 83.7867 94.5049 83.5033 97.4516 83.39C100.398 83.2767 102.778 83.22 104.592 83.22C106.405 83.22 108.558 83.2767 111.052 83.39C113.658 83.39 116.378 83.56 119.212 83.9C122.158 84.24 125.048 84.75 127.882 85.43C130.828 85.9967 133.435 86.9033 135.702 88.15C137.968 89.2833 139.782 90.7567 141.142 92.57C142.615 94.27 143.352 96.3667 143.352 98.86C143.352 99.54 143.125 100.163 142.672 100.73C142.332 101.297 141.822 101.58 141.142 101.58C141.028 101.58 140.745 101.467 140.292 101.24H139.952ZM62.6016 186.41C62.3749 186.75 62.0349 187.09 61.5816 187.43C61.2416 187.883 60.7883 188.11 60.2216 188.11C59.4283 188.11 58.7483 187.827 58.1816 187.26C57.6149 186.693 57.1616 185.957 56.8216 185.05C56.4816 184.257 56.2549 183.407 56.1416 182.5C55.9149 181.593 55.8016 180.857 55.8016 180.29C55.8016 178.137 56.3683 175.417 57.5016 172.13C58.7483 168.843 60.2783 165.217 62.0916 161.25C64.0183 157.283 66.1716 153.203 68.5516 149.01C71.0449 144.817 73.4816 140.737 75.8616 136.77C78.2416 132.803 80.5083 129.177 82.6616 125.89C84.8149 122.49 86.6283 119.713 88.1016 117.56C89.6883 115.18 91.2749 112.913 92.8616 110.76C94.4483 108.493 95.9783 106.51 97.4516 104.81C98.9249 102.997 100.285 101.58 101.532 100.56C102.892 99.4267 103.968 98.86 104.762 98.86C105.782 98.86 106.518 99.37 106.972 100.39C107.538 101.41 107.992 102.487 108.332 103.62C108.558 104.64 108.728 105.773 108.842 107.02C109.068 108.153 109.182 109.003 109.182 109.57C109.182 110.477 108.842 111.497 108.162 112.63C107.482 113.65 106.858 114.443 106.292 115.01C104.252 117.277 101.872 120.167 99.1516 123.68C96.5449 127.193 93.7683 131.103 90.8216 135.41C87.9883 139.603 85.1549 144.023 82.3216 148.67C79.4883 153.317 76.7683 157.907 74.1616 162.44C71.6683 166.86 69.4016 171.11 67.3616 175.19C65.4349 179.27 63.9616 182.84 62.9416 185.9L62.7716 186.41H62.6016ZM102.796 146.97C102.456 146.97 102.399 146.8 102.626 146.46C103.306 145.213 104.439 143.457 106.026 141.19C107.613 138.81 109.539 135.977 111.806 132.69C110.673 132.123 109.313 131.387 107.726 130.48C106.139 129.573 105.233 128.553 105.006 127.42C104.439 124.927 104.666 123 105.686 121.64C106.706 120.28 107.783 119.6 108.916 119.6C109.143 119.6 109.483 119.713 109.936 119.94L112.146 121.13C114.753 122.49 117.303 123.737 119.796 124.87C122.289 125.89 125.689 126.4 129.996 126.4C131.243 126.4 132.546 126.343 133.906 126.23C135.266 126.117 136.739 125.947 138.326 125.72C139.006 125.72 139.629 126.117 140.196 126.91C140.763 127.59 141.216 128.497 141.556 129.63C141.896 130.763 142.123 131.953 142.236 133.2C142.463 134.447 142.576 135.58 142.576 136.6C142.576 137.733 141.896 138.867 140.536 140C139.743 140.68 138.383 141.983 136.456 143.91C134.529 145.837 132.716 147.933 131.016 150.2C129.316 152.467 128.126 154.733 127.446 157C126.879 159.267 127.446 161.023 129.146 162.27C129.826 162.497 130.336 162.61 130.676 162.61C132.036 162.61 133.453 161.987 134.926 160.74C136.399 159.493 137.873 158.02 139.346 156.32C140.819 154.62 142.179 152.863 143.426 151.05C144.786 149.237 145.919 147.763 146.826 146.63C146.939 146.63 147.053 146.573 147.166 146.46C147.279 146.233 147.393 146.12 147.506 146.12H158.046C158.386 146.12 158.443 146.347 158.216 146.8C157.763 147.593 156.516 149.407 154.476 152.24C152.549 155.073 150.339 158.077 147.846 161.25C145.353 164.31 142.803 167.143 140.196 169.75C137.589 172.243 135.436 173.66 133.736 174C133.056 174.227 132.433 174.34 131.866 174.34C131.299 174.34 130.733 174.34 130.166 174.34C127.899 174.34 126.029 173.66 124.556 172.3C123.196 170.94 121.779 168.957 120.306 166.35C119.739 165.783 119.116 164.537 118.436 162.61C117.756 160.683 117.416 158.983 117.416 157.51C117.416 154.337 118.379 150.937 120.306 147.31C122.233 143.57 125.066 140.227 128.806 137.28C127.219 137.28 125.689 137.11 124.216 136.77C122.743 136.43 121.269 136.033 119.796 135.58C119.796 135.58 119.569 136.033 119.116 136.94C118.776 137.847 118.323 138.867 117.756 140C117.189 141.133 116.566 142.323 115.886 143.57C115.319 144.817 114.753 145.78 114.186 146.46C113.846 146.8 113.619 146.97 113.506 146.97H102.796ZM190.65 146.29C190.877 146.063 191.16 145.95 191.5 145.95H202.04C202.493 145.95 202.55 146.12 202.21 146.46C201.757 147.253 200.623 149.01 198.81 151.73C197.11 154.337 195.127 157.113 192.86 160.06C190.593 162.893 188.27 165.5 185.89 167.88C183.51 170.26 181.47 171.62 179.77 171.96C179.43 172.073 178.863 172.13 178.07 172.13C176.483 172.13 175.123 171.79 173.99 171.11C172.857 170.317 171.893 169.467 171.1 168.56C170.193 167.54 169.457 166.35 168.89 164.99C167.643 167.03 166.227 168.787 164.64 170.26C163.393 171.62 161.863 172.867 160.05 174C158.237 175.133 156.31 175.7 154.27 175.7C151.89 175.813 149.737 174.963 147.81 173.15C145.997 171.337 144.637 169.127 143.73 166.52C142.71 163.8 142.313 160.91 142.54 157.85C142.653 154.677 143.503 151.843 145.09 149.35C146.563 146.857 148.093 144.25 149.68 141.53C151.38 138.697 153.193 136.033 155.12 133.54C157.047 130.933 159.2 128.553 161.58 126.4C163.96 124.247 166.623 122.547 169.57 121.3C171.723 120.393 173.593 119.94 175.18 119.94C177.787 119.94 179.883 120.96 181.47 123C183.057 124.927 184.417 127.477 185.55 130.65C185.097 130.197 184.587 129.8 184.02 129.46C182.887 128.667 181.413 128.27 179.6 128.27C177.56 128.27 175.123 129.12 172.29 130.82C169.57 132.52 166.567 136.033 163.28 141.36C159.993 146.573 157.557 150.823 155.97 154.11C154.383 157.283 153.25 159.777 152.57 161.59C152.003 163.29 151.777 164.48 151.89 165.16C152.003 165.84 152.173 166.293 152.4 166.52C152.853 166.86 154.327 165.84 156.82 163.46C159.313 161.08 161.863 157.51 164.47 152.75C165.717 150.37 167.077 148.047 168.55 145.78C170.023 143.4 171.383 141.303 172.63 139.49C173.99 137.563 175.18 136.033 176.2 134.9C177.22 133.767 177.957 133.2 178.41 133.2C179.317 133.2 180.62 133.88 182.32 135.24C184.133 136.6 185.493 138.413 186.4 140.68C184.36 144.193 182.603 147.423 181.13 150.37C179.883 152.863 178.92 155.3 178.24 157.68C177.56 159.947 177.617 161.42 178.41 162.1C178.863 162.44 179.6 161.987 180.62 160.74C181.753 159.493 182.943 157.963 184.19 156.15C185.437 154.337 186.627 152.467 187.76 150.54C189.007 148.613 189.97 147.197 190.65 146.29ZM188.918 166.01C187.672 162.497 187.218 158.927 187.558 155.3C187.672 152.353 188.578 148.84 190.278 144.76C191.865 140.567 193.848 136.203 196.228 131.67C198.722 127.023 201.442 122.32 204.388 117.56C207.335 112.687 210.282 108.097 213.228 103.79C216.175 99.4833 218.952 95.63 221.558 92.23C224.278 88.7167 226.488 85.94 228.188 83.9C231.022 80.7267 233.118 79.14 234.478 79.14C235.385 79.14 236.122 79.5933 236.688 80.5C237.368 81.4067 237.935 82.4833 238.388 83.73C238.955 84.8633 239.352 86.11 239.578 87.47C239.805 88.7167 239.918 89.68 239.918 90.36C239.918 91.04 239.748 91.72 239.408 92.4C239.068 92.9667 238.615 93.7033 238.048 94.61L224.958 112.97C223.485 114.67 221.275 117.503 218.328 121.47C215.382 125.437 212.435 129.743 209.488 134.39C206.542 138.923 203.935 143.4 201.668 147.82C199.402 152.127 198.268 155.583 198.268 158.19C200.875 154.223 203.425 150.37 205.918 146.63C208.525 142.89 211.472 139.32 214.758 135.92C221.672 129.233 226.602 125.89 229.548 125.89C231.362 125.89 232.665 126.57 233.458 127.93C234.365 129.177 235.498 131.5 236.858 134.9C236.972 135.127 237.142 135.637 237.368 136.43C237.708 137.11 238.048 137.903 238.388 138.81C238.728 139.603 239.012 140.453 239.238 141.36C239.465 142.153 239.578 142.833 239.578 143.4C239.578 144.193 239.465 145.383 239.238 146.97C239.125 148.443 238.615 150.2 237.708 152.24C236.802 154.28 235.272 156.547 233.118 159.04C231.078 161.42 228.188 163.913 224.448 166.52C227.168 165.5 229.662 164.027 231.928 162.1C234.308 160.173 236.405 158.133 238.218 155.98C240.032 153.713 241.562 151.56 242.808 149.52C244.168 147.367 245.188 145.723 245.868 144.59L256.238 146.29C250.458 155.47 244.225 162.44 237.538 167.2C230.852 171.847 224.108 174.17 217.308 174.17C216.742 174.17 216.175 174.17 215.608 174.17C215.155 174.17 214.645 174.113 214.078 174C210.792 174 208.072 172.923 205.918 170.77C203.878 168.503 202.405 165.897 201.498 162.95L196.058 170.6C195.605 170.94 195.265 171.393 195.038 171.96C194.812 172.527 194.415 172.81 193.848 172.81C191.922 172.81 190.278 170.543 188.918 166.01ZM205.748 157.34C206.315 161.873 208.015 164.14 210.848 164.14C212.775 164.14 214.815 163.063 216.968 160.91C219.235 158.757 221.275 156.263 223.088 153.43C225.015 150.483 226.602 147.537 227.848 144.59C229.095 141.643 229.718 139.32 229.718 137.62C229.718 136.26 229.208 135.58 228.188 135.58C224.222 135.58 216.742 142.833 205.748 157.34ZM288.765 146.29C288.992 146.063 289.275 145.95 289.615 145.95H300.155C300.609 145.95 300.665 146.12 300.325 146.46C299.872 147.253 298.739 149.01 296.925 151.73C295.225 154.337 293.242 157.113 290.975 160.06C288.709 162.893 286.385 165.5 284.005 167.88C281.625 170.26 279.585 171.62 277.885 171.96C277.545 172.073 276.979 172.13 276.185 172.13C274.599 172.13 273.239 171.79 272.105 171.11C270.972 170.317 270.009 169.467 269.215 168.56C268.309 167.54 267.572 166.35 267.005 164.99C265.759 167.03 264.342 168.787 262.755 170.26C261.509 171.62 259.979 172.867 258.165 174C256.352 175.133 254.425 175.7 252.385 175.7C250.005 175.813 247.852 174.963 245.925 173.15C244.112 171.337 242.752 169.127 241.845 166.52C240.825 163.8 240.429 160.91 240.655 157.85C240.769 154.677 241.619 151.843 243.205 149.35C244.679 146.857 246.209 144.25 247.795 141.53C249.495 138.697 251.309 136.033 253.235 133.54C255.162 130.933 257.315 128.553 259.695 126.4C262.075 124.247 264.739 122.547 267.685 121.3C269.839 120.393 271.709 119.94 273.295 119.94C275.902 119.94 277.999 120.96 279.585 123C281.172 124.927 282.532 127.477 283.665 130.65C283.212 130.197 282.702 129.8 282.135 129.46C281.002 128.667 279.529 128.27 277.715 128.27C275.675 128.27 273.239 129.12 270.405 130.82C267.685 132.52 264.682 136.033 261.395 141.36C258.109 146.573 255.672 150.823 254.085 154.11C252.499 157.283 251.365 159.777 250.685 161.59C250.119 163.29 249.892 164.48 250.005 165.16C250.119 165.84 250.289 166.293 250.515 166.52C250.969 166.86 252.442 165.84 254.935 163.46C257.429 161.08 259.979 157.51 262.585 152.75C263.832 150.37 265.192 148.047 266.665 145.78C268.139 143.4 269.499 141.303 270.745 139.49C272.105 137.563 273.295 136.033 274.315 134.9C275.335 133.767 276.072 133.2 276.525 133.2C277.432 133.2 278.735 133.88 280.435 135.24C282.249 136.6 283.609 138.413 284.515 140.68C282.475 144.193 280.719 147.423 279.245 150.37C277.999 152.863 277.035 155.3 276.355 157.68C275.675 159.947 275.732 161.42 276.525 162.1C276.979 162.44 277.715 161.987 278.735 160.74C279.869 159.493 281.059 157.963 282.305 156.15C283.552 154.337 284.742 152.467 285.875 150.54C287.122 148.613 288.085 147.197 288.765 146.29ZM244.533 213.27C247.14 213.27 249.803 212.023 252.523 209.53C255.243 207.15 257.85 204.26 260.343 200.86C262.837 197.46 265.103 193.947 267.143 190.32C269.183 186.693 270.827 183.69 272.073 181.31C269.58 182.33 266.52 183.747 262.893 185.56C259.153 187.487 255.583 189.583 252.183 191.85C248.67 194.23 245.723 196.723 243.343 199.33C240.85 202.05 239.603 204.827 239.603 207.66C239.603 209.247 240 210.55 240.793 211.57C241.587 212.703 242.833 213.27 244.533 213.27ZM324.263 146.46C321.43 150.427 318.37 154.11 315.083 157.51C311.91 160.797 308.68 163.8 305.393 166.52C302.22 169.127 299.103 171.45 296.043 173.49C293.097 175.53 290.433 177.287 288.053 178.76C286.013 183.407 283.633 188.337 280.913 193.55C278.193 198.763 275.077 203.523 271.563 207.83C267.937 212.25 263.857 215.877 259.323 218.71C254.79 221.657 249.577 223.13 243.683 223.13C241.417 222.79 239.603 221.997 238.243 220.75C236.883 219.617 235.693 218.087 234.673 216.16C233.767 214.573 232.86 212.647 231.953 210.38C230.933 208.227 230.423 206.187 230.423 204.26C230.423 201.2 231.557 198.253 233.823 195.42C235.977 192.587 238.583 189.923 241.643 187.43C244.703 184.937 247.933 182.727 251.333 180.8C254.62 178.873 257.453 177.343 259.833 176.21C261.533 175.303 263.29 174.567 265.103 174C266.917 173.32 268.787 172.527 270.713 171.62C271.96 171.053 273.32 170.43 274.793 169.75C276.153 169.07 277.513 168.333 278.873 167.54C281.14 162.553 283.293 157.453 285.333 152.24C287.26 146.913 289.073 141.643 290.773 136.43C289.753 135.637 289.243 134.73 289.243 133.71C289.243 133.03 289.583 131.953 290.263 130.48C291.057 128.893 291.963 127.363 292.983 125.89C294.117 124.303 295.25 122.943 296.383 121.81C297.63 120.563 298.65 119.94 299.443 119.94C300.463 119.94 301.427 120.337 302.333 121.13C303.353 121.81 304.26 122.717 305.053 123.85C305.847 124.87 306.47 125.947 306.923 127.08C307.377 128.213 307.603 129.233 307.603 130.14C307.603 130.48 307.433 131.16 307.093 132.18C306.753 133.2 306.3 134.447 305.733 135.92C305.28 137.28 304.713 138.753 304.033 140.34C303.467 141.927 302.9 143.4 302.333 144.76C301.88 145.893 301.257 147.31 300.463 149.01C299.67 150.597 298.877 152.183 298.083 153.77C297.29 155.357 296.553 156.83 295.873 158.19C295.193 159.55 294.683 160.57 294.343 161.25C295.023 160.91 295.873 160.513 296.893 160.06C297.913 159.607 299.16 158.87 300.633 157.85C302.107 156.83 303.863 155.413 305.903 153.6C307.943 151.787 310.323 149.293 313.043 146.12L324.263 146.46ZM302.503 112.8C302.05 113.48 302.107 114.217 302.673 115.01L306.583 119.43C306.81 119.77 307.093 119.94 307.433 119.94C307.66 119.94 308 119.713 308.453 119.26C309.247 118.24 310.437 116.823 312.023 115.01C313.61 113.083 315.253 111.157 316.953 109.23C318.653 107.19 320.24 105.377 321.713 103.79C323.187 102.203 324.263 101.24 324.943 100.9C324.49 99.6533 323.923 98.52 323.243 97.5C322.677 96.5933 321.997 95.8 321.203 95.12C320.41 94.44 319.447 94.1 318.313 94.1C317.86 94.1 317.293 94.2133 316.613 94.44C315.933 94.6667 314.97 95.5733 313.723 97.16C312.477 98.7467 311.117 100.56 309.643 102.6C308.283 104.527 306.923 106.453 305.563 108.38C304.203 110.307 303.183 111.78 302.503 112.8ZM356.666 146.29C356.892 146.063 357.176 145.95 357.516 145.95H368.056C368.509 145.95 368.566 146.12 368.226 146.46C367.772 147.253 366.639 149.01 364.826 151.73C363.126 154.337 361.142 157.113 358.876 160.06C356.609 162.893 354.286 165.5 351.906 167.88C349.526 170.26 347.486 171.62 345.786 171.96C345.446 172.073 344.879 172.13 344.086 172.13C342.499 172.13 341.139 171.79 340.006 171.11C338.872 170.317 337.909 169.467 337.116 168.56C336.209 167.54 335.472 166.35 334.906 164.99C333.659 167.03 332.242 168.787 330.656 170.26C329.409 171.62 327.879 172.867 326.066 174C324.252 175.133 322.326 175.7 320.286 175.7C317.906 175.813 315.752 174.963 313.826 173.15C312.012 171.337 310.652 169.127 309.746 166.52C308.726 163.8 308.329 160.91 308.556 157.85C308.669 154.677 309.519 151.843 311.106 149.35C312.579 146.857 314.109 144.25 315.696 141.53C317.396 138.697 319.209 136.033 321.136 133.54C323.062 130.933 325.216 128.553 327.596 126.4C329.976 124.247 332.639 122.547 335.586 121.3C337.739 120.393 339.609 119.94 341.196 119.94C343.802 119.94 345.899 120.96 347.486 123C349.072 124.927 350.432 127.477 351.566 130.65C351.112 130.197 350.602 129.8 350.036 129.46C348.902 128.667 347.429 128.27 345.616 128.27C343.576 128.27 341.139 129.12 338.306 130.82C335.586 132.52 332.582 136.033 329.296 141.36C326.009 146.573 323.572 150.823 321.986 154.11C320.399 157.283 319.266 159.777 318.586 161.59C318.019 163.29 317.792 164.48 317.906 165.16C318.019 165.84 318.189 166.293 318.416 166.52C318.869 166.86 320.342 165.84 322.836 163.46C325.329 161.08 327.879 157.51 330.486 152.75C331.732 150.37 333.092 148.047 334.566 145.78C336.039 143.4 337.399 141.303 338.646 139.49C340.006 137.563 341.196 136.033 342.216 134.9C343.236 133.767 343.972 133.2 344.426 133.2C345.332 133.2 346.636 133.88 348.336 135.24C350.149 136.6 351.509 138.413 352.416 140.68C350.376 144.193 348.619 147.423 347.146 150.37C345.899 152.863 344.936 155.3 344.256 157.68C343.576 159.947 343.632 161.42 344.426 162.1C344.879 162.44 345.616 161.987 346.636 160.74C347.769 159.493 348.959 157.963 350.206 156.15C351.452 154.337 352.642 152.467 353.776 150.54C355.022 148.613 355.986 147.197 356.666 146.29ZM352.724 159.21C352.724 156.377 353.574 152.977 355.274 149.01C356.861 145.043 358.901 141.247 361.394 137.62C364.001 133.88 366.891 130.707 370.064 128.1C373.237 125.493 376.354 124.19 379.414 124.19C381.681 124.19 384.004 125.153 386.384 127.08C388.764 129.007 390.747 131.557 392.334 134.73C394.714 129.97 397.434 125.04 400.494 119.94C403.667 114.84 406.841 109.967 410.014 105.32C413.187 100.673 416.134 96.48 418.854 92.74C421.687 89 424.011 86.0533 425.824 83.9C428.544 80.7267 430.584 79.14 431.944 79.14C432.964 79.14 433.814 79.5933 434.494 80.5C435.174 81.2933 435.741 82.3133 436.194 83.56C436.647 84.6933 436.987 85.94 437.214 87.3C437.441 88.5467 437.554 89.5667 437.554 90.36C437.554 91.04 437.384 91.72 437.044 92.4C436.704 92.9667 436.251 93.7033 435.684 94.61L422.594 112.97C421.574 114.103 420.214 115.803 418.514 118.07C416.814 120.223 414.944 122.717 412.904 125.55C410.977 128.27 408.994 131.217 406.954 134.39C404.914 137.563 403.044 140.623 401.344 143.57C399.757 146.517 398.397 149.293 397.264 151.9C396.244 154.507 395.734 156.66 395.734 158.36C395.734 159.267 396.301 160.117 397.434 160.91C398.567 161.59 399.587 161.93 400.494 161.93C401.061 161.93 401.797 161.76 402.704 161.42C403.611 160.967 404.801 160.117 406.274 158.87C407.861 157.623 409.731 155.867 411.884 153.6C414.151 151.333 416.814 148.33 419.874 144.59L430.414 146.29C427.014 151.39 423.671 155.697 420.384 159.21C417.097 162.723 413.981 165.613 411.034 167.88C408.201 170.033 405.651 171.62 403.384 172.64C401.117 173.547 399.304 174 397.944 174C394.204 174 391.031 171.28 388.424 165.84C386.384 161.08 385.364 157.85 385.364 156.15V155.64C376.297 168.447 369.611 174.85 365.304 174.85C364.284 174.85 363.321 174.68 362.414 174.34C361.621 174.113 360.827 173.603 360.034 172.81C359.241 172.017 358.334 170.883 357.314 169.41C356.294 167.823 355.104 165.84 353.744 163.46C353.064 162.1 352.724 160.683 352.724 159.21ZM384.684 137.11C382.531 137.11 380.151 138.073 377.544 140C374.937 141.927 372.501 144.25 370.234 146.97C368.081 149.577 366.267 152.353 364.794 155.3C363.321 158.133 362.584 160.513 362.584 162.44C362.584 163.913 363.151 164.65 364.284 164.65C367.684 164.65 375.674 157.34 388.254 142.72V141.87C388.254 138.697 387.064 137.11 384.684 137.11ZM416.51 154.79C416.623 152.297 417.36 149.237 418.72 145.61C420.193 141.87 422.006 138.3 424.16 134.9C426.426 131.387 428.92 128.44 431.64 126.06C434.473 123.567 437.306 122.32 440.14 122.32C441.16 122.32 442.52 122.547 444.22 123C446.033 123.34 447.676 123.963 449.15 124.87C450.623 125.663 451.7 126.797 452.38 128.27C453.173 129.743 453.06 131.613 452.04 133.88C453.74 134.787 454.93 135.58 455.61 136.26C456.29 136.94 456.686 138.753 456.8 141.7C456.913 144.193 456.573 146.743 455.78 149.35C454.986 151.843 453.796 154.11 452.21 156.15C452.096 157.17 452.21 158.303 452.55 159.55C453.003 160.797 453.74 161.42 454.76 161.42C456.006 161.42 457.366 160.513 458.84 158.7C460.313 156.773 461.786 154.62 463.26 152.24C464.846 149.747 466.036 147.877 466.83 146.63C467.056 146.403 467.34 146.29 467.68 146.29H478.22C478.673 146.29 478.73 146.46 478.39 146.8C477.936 147.593 476.803 149.293 474.99 151.9C473.29 154.507 471.306 157.283 469.04 160.23C466.886 163.063 464.62 165.67 462.24 168.05C459.973 170.317 457.99 171.62 456.29 171.96C455.95 172.073 455.496 172.13 454.93 172.13C453.683 172.13 452.55 171.903 451.53 171.45C450.623 170.883 449.773 170.26 448.98 169.58C448.3 168.787 447.733 167.993 447.28 167.2C446.826 166.293 446.486 165.557 446.26 164.99C440.82 171.11 435.55 174.17 430.45 174.17C428.636 174.17 427.05 173.66 425.69 172.64C424.443 171.507 423.14 169.977 421.78 168.05C419.853 165.557 418.493 163.347 417.7 161.42C416.906 159.38 416.51 157.17 416.51 154.79ZM432.66 143.74C430.393 146.8 428.863 149.52 428.07 151.9C427.39 154.167 427.05 156.433 427.05 158.7C427.05 161.76 428.353 163.29 430.96 163.29C433.113 163.29 435.323 162.383 437.59 160.57C439.856 158.643 442.066 156.037 444.22 152.75C443.766 151.39 443.426 149.917 443.2 148.33C443.086 146.63 443.143 145.043 443.37 143.57C443.596 141.983 443.936 140.51 444.39 139.15C444.956 137.79 445.636 136.713 446.43 135.92C445.863 135.127 445.013 134.73 443.88 134.73C440.706 134.73 436.966 137.733 432.66 143.74ZM467.034 146.97C466.694 146.97 466.638 146.8 466.864 146.46C467.544 145.213 468.678 143.457 470.264 141.19C471.851 138.81 473.778 135.977 476.044 132.69C474.911 132.123 473.551 131.387 471.964 130.48C470.378 129.573 469.471 128.553 469.244 127.42C468.678 124.927 468.904 123 469.924 121.64C470.944 120.28 472.021 119.6 473.154 119.6C473.381 119.6 473.721 119.713 474.174 119.94L476.384 121.13C478.991 122.49 481.541 123.737 484.034 124.87C486.528 125.89 489.928 126.4 494.234 126.4C495.481 126.4 496.784 126.343 498.144 126.23C499.504 126.117 500.978 125.947 502.564 125.72C503.244 125.72 503.868 126.117 504.434 126.91C505.001 127.59 505.454 128.497 505.794 129.63C506.134 130.763 506.361 131.953 506.474 133.2C506.701 134.447 506.814 135.58 506.814 136.6C506.814 137.733 506.134 138.867 504.774 140C503.981 140.68 502.621 141.983 500.694 143.91C498.768 145.837 496.954 147.933 495.254 150.2C493.554 152.467 492.364 154.733 491.684 157C491.118 159.267 491.684 161.023 493.384 162.27C494.064 162.497 494.574 162.61 494.914 162.61C496.274 162.61 497.691 161.987 499.164 160.74C500.638 159.493 502.111 158.02 503.584 156.32C505.058 154.62 506.418 152.863 507.664 151.05C509.024 149.237 510.158 147.763 511.064 146.63C511.178 146.63 511.291 146.573 511.404 146.46C511.518 146.233 511.631 146.12 511.744 146.12H522.284C522.624 146.12 522.681 146.347 522.454 146.8C522.001 147.593 520.754 149.407 518.714 152.24C516.788 155.073 514.578 158.077 512.084 161.25C509.591 164.31 507.041 167.143 504.434 169.75C501.828 172.243 499.674 173.66 497.974 174C497.294 174.227 496.671 174.34 496.104 174.34C495.538 174.34 494.971 174.34 494.404 174.34C492.138 174.34 490.268 173.66 488.794 172.3C487.434 170.94 486.018 168.957 484.544 166.35C483.978 165.783 483.354 164.537 482.674 162.61C481.994 160.683 481.654 158.983 481.654 157.51C481.654 154.337 482.618 150.937 484.544 147.31C486.471 143.57 489.304 140.227 493.044 137.28C491.458 137.28 489.928 137.11 488.454 136.77C486.981 136.43 485.508 136.033 484.034 135.58C484.034 135.58 483.808 136.033 483.354 136.94C483.014 137.847 482.561 138.867 481.994 140C481.428 141.133 480.804 142.323 480.124 143.57C479.558 144.817 478.991 145.78 478.424 146.46C478.084 146.8 477.858 146.97 477.744 146.97H467.034Z" fill="#EA8215"/>
</svg>
